<svg id="visual" viewBox="0 0 1900 450" width="1900" height="450" xmlns="http://www.w3.org/2000/svg" xmlns:xlink="http://www.w3.org/1999/xlink" version="1.1"><rect x="0" y="0" width="1900" height="450" fill="#001220"></rect><defs><linearGradient id="grad1_0" x1="76.3%" y1="0%" x2="100%" y2="100%"><stop offset="-34.44444444444445%" stop-color="#001220" stop-opacity="1"></stop><stop offset="134.44444444444443%" stop-color="#001220" stop-opacity="1"></stop></linearGradient></defs><defs><linearGradient id="grad2_0" x1="0%" y1="0%" x2="23.7%" y2="100%"><stop offset="-34.44444444444445%" stop-color="#001220" stop-opacity="1"></stop><stop offset="134.44444444444443%" stop-color="#001220" stop-opacity="1"></stop></linearGradient></defs><g transform="translate(1900, 0)"><path d="M0 382.5C-14.5 373.8 -29 365 -43.9 361.3C-58.7 357.7 -73.9 359.1 -86.9 352.5C-99.9 345.8 -110.7 331.3 -121.3 319.8C-131.9 308.3 -142.2 299.9 -155.7 296.6C-169.1 293.3 -185.7 295.1 -204.5 296.3C-223.3 297.5 -244.5 298.1 -253.6 286.3C-262.8 274.5 -260 250.2 -263.5 233.4C-266.9 216.7 -276.6 207.4 -287.2 198.3C-297.8 189.1 -309.3 179.9 -325 170.6C-340.6 161.2 -360.4 151.6 -356.2 135.1C-352.1 118.6 -324.1 95.2 -322.4 79.5C-320.6 63.7 -345 55.6 -359.4 43.6C-373.8 31.7 -378.1 15.8 -382.5 0L0 0Z" fill="#FBAE3C"></path></g><g transform="translate(0, 450)"><path d="M0 -382.5C12.2 -354.2 24.4 -326 39.3 -323.6C54.2 -321.3 71.7 -344.8 85.9 -348.6C100.1 -352.4 110.9 -336.5 125.2 -330.1C139.4 -323.7 157 -326.8 165.4 -315.2C173.9 -303.7 173.1 -277.5 188 -272.4C203 -267.4 233.7 -283.5 244 -275.5C254.4 -267.4 244.5 -235.3 243.3 -215.5C242 -195.7 249.5 -188.3 267.5 -184.6C285.4 -180.9 313.9 -181 330.3 -173.3C346.6 -165.7 350.9 -150.3 357.6 -135.6C364.4 -120.9 373.7 -106.9 369.9 -91.2C366.2 -75.4 349.5 -57.9 349.4 -42.4C349.4 -26.9 365.9 -13.5 382.5 0L0 0Z" fill="#FBAE3C"></path></g></svg>